HIERARCHY
ROOT SimulationBone
{
	OFFSET 0.000000 0.000000 0.000000
	CHANNELS 6 Xposition Yposition Zposition Zrotation Yrotation Xrotation 
	JOINT Hips
	{
		OFFSET 0.000000 0.000000 0.000000
		CHANNELS 6 Xposition Yposition Zposition Zrotation Yrotation Xrotation 
		JOINT RightUpLeg
		{
			OFFSET 0.103457 1.857823 10.548503
			CHANNELS 3 Zrotation Yrotation Xrotation
			JOINT RightLeg
			{
				OFFSET 43.499996 -0.000034 0.000002
				CHANNELS 3 Zrotation Yrotation Xrotation
				JOINT RightFoot
				{
					OFFSET 42.372192 0.000011 -0.000001
					CHANNELS 3 Zrotation Yrotation Xrotation
					JOINT RightToe
					{
						OFFSET 17.300007 0.000003 0.000000
						CHANNELS 3 Zrotation Yrotation Xrotation
						End Site
						{
							OFFSET 0.000000 0.000000 0.000000
						}
					}
				}
			}
		}
		JOINT LeftUpLeg
		{
			OFFSET 0.103457 1.857824 -10.548503
			CHANNELS 3 Zrotation Yrotation Xrotation
			JOINT LeftLeg
			{
				OFFSET 43.500046 -0.000027 0.000015
				CHANNELS 3 Zrotation Yrotation Xrotation
				JOINT LeftFoot
				{
					OFFSET 42.372261 0.000004 0.000017
					CHANNELS 3 Zrotation Yrotation Xrotation
					JOINT LeftToe
					{
						OFFSET 17.299995 -0.000004 -0.000002
						CHANNELS 3 Zrotation Yrotation Xrotation
						End Site
						{
							OFFSET 0.000000 0.000000 0.000000
						}
					}
				}
			}
		}
		JOINT Spine
		{
			OFFSET 6.901969 -2.603723 -0.000001
			CHANNELS 3 Zrotation Yrotation Xrotation
			JOINT Spine1
			{
				OFFSET 12.588095 -0.000003 0.000006
				CHANNELS 3 Zrotation Yrotation Xrotation
				JOINT Spine2
				{
					OFFSET 12.343204 0.000006 -0.000008
					CHANNELS 3 Zrotation Yrotation Xrotation
					JOINT Neck
					{
						OFFSET 25.832893 -0.000006 0.000003
						CHANNELS 3 Zrotation Yrotation Xrotation
						JOINT Head
						{
							OFFSET 11.766609 -0.000008 0.000000
							CHANNELS 3 Zrotation Yrotation Xrotation
							End Site
							{
								OFFSET 0.000000 0.000000 0.000000
							}
						}
					}
					JOINT RightShoulder
					{
						OFFSET 19.745899 -1.480379 6.000108
						CHANNELS 3 Zrotation Yrotation Xrotation
						JOINT RightArm
						{
							OFFSET 11.284125 -0.000006 -0.000023
							CHANNELS 3 Zrotation Yrotation Xrotation
							JOINT RightForeArm
							{
								OFFSET 33.000050 -0.000002 0.000027
								CHANNELS 3 Zrotation Yrotation Xrotation
								JOINT RightHand
								{
									OFFSET 25.200008 0.000014 0.000008
									CHANNELS 3 Zrotation Yrotation Xrotation
									End Site
									{
										OFFSET 0.000000 0.000000 0.000000
									}
								}
							}
						}
					}
					JOINT LeftShoulder
					{
						OFFSET 19.746098 -1.480379 -6.000071
						CHANNELS 3 Zrotation Yrotation Xrotation
						JOINT LeftArm
						{
							OFFSET 11.284139 -0.000009 -0.000009
							CHANNELS 3 Zrotation Yrotation Xrotation
							JOINT LeftForeArm
							{
								OFFSET 33.000092 0.000008 0.000008
								CHANNELS 3 Zrotation Yrotation Xrotation
								JOINT LeftHand
								{
									OFFSET 25.199780 0.000137 0.000422
									CHANNELS 3 Zrotation Yrotation Xrotation
									End Site
									{
										OFFSET 0.000000 0.000000 0.000000
									}
								}
							}
						}
					}
				}
			}
		}
	}
}
MOTION
Frames: 7
Frame Time: 0.016667
-107.012664 0.000000 -386.994165 0.000000 46.998965 0.000000 0.691203 90.587281 -0.400327 96.697015 -2.275504 -179.128611 -178.865775 10.666000 -179.630197 -20.709377 -3.425058 -15.818875 87.466038 11.333420 2.713368 21.454555 0.003108 0.000018 155.386402 4.868725 -174.860266 -70.472608 -7.481732 3.917784 76.275774 -1.260659 4.590643 21.454543 -0.003087 0.000000 8.759146 -0.859548 0.176949 7.504034 -1.728674 0.297946 7.185797 -1.726967 0.308376 -7.910816 1.124413 15.528399 -6.405437 -4.713703 16.808601 150.765154 -71.938474 28.726010 -8.544812 52.634550 11.116781 -52.742132 -15.944128 1.936287 10.986596 -11.209857 15.841907 179.257605 72.312092 0.560900 -2.278364 -59.691345 -39.563225 -26.384484 14.173844 -1.111892 14.533542 13.795680 4.993666 
-105.922731 0.000000 -388.066190 0.000000 47.545298 0.000000 0.622379 90.441643 -0.400888 96.638637 -2.379534 -179.214181 -178.231218 10.730196 -179.387460 -21.321687 -3.419602 -15.624596 88.175637 11.101107 2.333883 21.454555 0.003101 0.000017 154.362945 4.578106 -175.445935 -67.212940 -7.374818 3.436515 76.836799 -1.011254 4.356682 21.454541 -0.003087 0.000000 8.764759 -0.854886 0.094976 7.516502 -1.714055 0.134368 7.198263 -1.713337 0.144709 -7.749983 1.454687 15.490925 -6.565512 -4.940658 16.959320 150.460227 -72.006398 29.033285 -8.955142 52.082667 10.624811 -54.680694 -15.602314 1.978653 10.472264 -11.477972 16.389114 179.649466 72.189816 0.961601 -1.581636 -59.878361 -40.014297 -26.097652 14.200335 -1.108709 15.062485 14.538263 5.778861 
-104.826421 0.000000 -389.149013 0.000000 48.161982 0.000000 0.565384 90.301066 -0.433490 96.556862 -2.447696 -179.344390 -177.533807 10.731214 -179.284570 -21.806277 -3.428501 -15.320612 88.862333 10.815341 2.028509 21.454557 0.003096 0.000017 153.568134 4.332924 -175.592178 -63.355997 -7.412244 2.773546 76.903241 -0.674140 3.895461 21.454552 -0.003094 -0.000000 8.769158 -0.845655 0.024619 7.526320 -1.691057 -0.005697 7.208075 -1.691190 0.004509 -7.752759 1.792031 15.445028 -6.601017 -5.160385 17.088865 149.938959 -72.097297 29.560100 -9.333263 51.666119 10.086084 -56.516373 -15.305647 2.023044 9.834097 -11.558810 16.814060 179.989245 72.102679 1.309507 -0.976404 -59.998951 -40.681337 -25.995558 14.210220 -1.107609 15.389361 14.724085 6.027634 
-103.731026 0.000000 -390.247095 0.000000 48.849509 0.000000 0.514790 90.156273 -0.489151 96.466351 -2.491702 -179.508425 -176.761539 10.698393 -179.190027 -22.154303 -3.457569 -14.978304 89.537167 10.519454 1.779457 21.454560 0.003098 0.000018 153.072338 4.191195 -175.493583 -58.887288 -7.333052 2.044186 76.663395 -0.265470 3.538198 21.454563 -0.003102 -0.000000 8.779121 -0.828309 -0.038907 7.547111 -1.652272 -0.131662 7.228867 -1.653170 -0.121684 -7.942730 2.027737 15.419038 -6.506168 -5.291988 17.166579 149.457296 -72.184393 30.046485 -9.780619 51.338696 9.476464 -58.168895 -15.031752 2.065248 9.217531 -11.537333 17.161858 -179.713629 72.082397 1.614927 -0.460074 -60.055775 -41.397570 -26.084795 14.197965 -1.108347 15.366473 14.294590 5.597506 
-102.639680 0.000000 -391.361902 0.000000 49.606974 0.000000 0.465082 89.987151 -0.564827 96.375790 -2.558005 -179.702171 -175.928126 10.698680 -178.975493 -22.394059 -3.505263 -14.674848 90.214798 10.258643 1.557090 21.454559 0.003111 0.000019 152.926397 4.236837 -175.393275 -53.833780 -6.871661 1.362001 76.308280 0.208100 3.552472 21.454559 -0.003103 0.000000 8.797641 -0.808322 -0.100172 7.584948 -1.608300 -0.253036 7.266718 -1.609930 -0.243320 -8.288725 2.087448 15.429549 -6.330141 -5.286400 17.175275 149.237916 -72.242519 30.266677 -10.357741 51.043106 8.795300 -59.564467 -14.733889 2.096729 8.774603 -11.531305 17.491504 -179.467486 72.139137 1.869445 -0.007742 -60.050159 -42.009185 -26.353823 14.169276 -1.110920 14.916776 13.223733 4.406335 
-101.552646 0.000000 -392.493339 0.000000 50.430877 0.000000 0.432326 89.787903 -0.660883 96.265768 -2.687871 -179.926451 -175.070794 10.776199 -178.699879 -22.578819 -3.536161 -14.383627 90.872695 10.011022 1.336904 21.454558 0.003122 0.000019 153.073377 4.510498 -175.273938 -48.273372 -6.032531 0.609417 75.726163 0.750794 3.635335 21.454553 -0.003102 -0.000000 8.810767 -0.799182 -0.159409 7.611989 -1.586105 -0.370979 7.293773 -1.588448 -0.361393 -8.622515 2.098715 15.437360 -6.206793 -5.264380 17.165087 149.066828 -72.315614 30.436472 -10.951616 50.844791 8.086123 -60.742101 -14.403599 2.118383 8.485606 -11.488645 17.842505 -179.344484 72.178423 1.996827 0.473865 -59.967693 -42.519500 -26.741706 14.141233 -1.115648 14.235877 11.748306 2.751446 
-100.471990 0.000000 -393.640558 0.000000 51.312243 0.000000 0.432825 89.563167 -0.772580 96.117387 -2.899770 179.828144 -174.211520 10.941674 -178.434548 -22.730391 -3.523317 -14.062933 91.478659 9.747013 1.105310 21.454559 0.003119 0.000018 153.452152 5.010428 -175.049288 -42.298399 -4.870811 -0.324386 74.773213 1.373069 3.534252 21.454555 -0.003103 -0.000001 8.804729 -0.809979 -0.216035 7.600763 -1.603974 -0.484756 7.282547 -1.607010 -0.475058 -8.800113 2.198897 15.400337 -6.234812 -5.353739 17.185858 148.697397 -72.440135 30.805308 -11.442019 50.808914 7.408753 -61.752827 -14.052744 2.133075 8.293515 -11.352977 18.227055 -179.392654 72.113986 1.945934 1.056512 -59.803054 -42.969432 -27.188297 14.140209 -1.123459 13.540095 10.129022 1.013701 
